<svg xmlns="http://www.w3.org/2000/svg" xmlns:xlink="http://www.w3.org/1999/xlink" width="500" zoomAndPan="magnify" viewBox="0 0 375 374.999991" height="500" preserveAspectRatio="xMidYMid meet" version="1.0"><defs><g/><clipPath id="175e997fac"><path d="M 64 60.601562 L 311 60.601562 L 311 172 L 64 172 Z M 64 60.601562 " clip-rule="nonzero"/></clipPath><clipPath id="634ed8e1ce"><path d="M 64 248 L 311 248 L 311 314.101562 L 64 314.101562 Z M 64 248 " clip-rule="nonzero"/></clipPath></defs><g clip-path="url(#175e997fac)"><path fill="#fa993a" d="M 69.65625 171.890625 L 305.398438 171.890625 C 308.457031 171.890625 310.925781 169.417969 310.925781 166.363281 C 310.925781 163.304688 308.457031 160.835938 305.398438 160.835938 L 273.339844 160.835938 L 267.875 129.488281 C 266.316406 120.515625 258.511719 114.011719 249.339844 114.011719 L 222.679688 114.011719 L 222.679688 96.0625 C 222.679688 76.617188 206.875 60.8125 187.429688 60.8125 C 167.984375 60.8125 152.183594 76.617188 152.183594 96.0625 L 152.183594 114.011719 L 125.519531 114.011719 C 116.347656 114.011719 108.546875 120.515625 106.984375 129.488281 L 101.523438 160.835938 L 69.589844 160.835938 C 66.535156 160.835938 64.0625 163.304688 64.0625 166.363281 C 64.0625 169.417969 66.597656 171.890625 69.65625 171.890625 Z M 117.910156 131.441406 C 118.558594 127.734375 121.746094 125.066406 125.519531 125.066406 L 152.183594 125.066406 L 152.183594 133.195312 C 152.183594 136.253906 154.652344 138.722656 157.710938 138.722656 C 160.765625 138.722656 163.238281 136.253906 163.238281 133.195312 L 163.238281 95.996094 C 163.238281 82.664062 174.097656 71.804688 187.429688 71.804688 C 200.761719 71.804688 211.621094 82.664062 211.621094 95.996094 L 211.621094 113.945312 L 181.640625 113.945312 C 178.585938 113.945312 176.113281 116.417969 176.113281 119.472656 C 176.113281 122.53125 178.585938 125 181.640625 125 L 249.339844 125 C 253.113281 125 256.300781 127.667969 256.949219 131.375 L 262.085938 160.769531 L 112.835938 160.769531 Z M 117.910156 131.441406 " fill-opacity="1" fill-rule="nonzero"/></g><g clip-path="url(#634ed8e1ce)"><path fill="#fa993a" d="M 305.335938 248.890625 L 69.65625 248.890625 C 66.597656 248.890625 64.128906 251.359375 64.128906 254.417969 C 64.128906 257.472656 66.597656 259.945312 69.65625 259.945312 L 84.351562 259.945312 L 78.695312 292.136719 C 77.71875 297.597656 79.214844 303.191406 82.792969 307.484375 C 86.367188 311.777344 91.636719 314.183594 97.230469 314.183594 L 277.824219 314.183594 C 283.355469 314.183594 288.621094 311.710938 292.199219 307.484375 C 295.773438 303.191406 297.269531 297.597656 296.296875 292.136719 L 290.636719 259.945312 L 305.398438 259.945312 C 308.457031 259.945312 310.925781 257.472656 310.925781 254.417969 C 310.925781 251.359375 308.390625 248.890625 305.335938 248.890625 Z M 283.679688 300.394531 C 282.183594 302.152344 280.101562 303.125 277.824219 303.125 L 97.164062 303.125 C 94.886719 303.125 92.675781 302.152344 91.246094 300.394531 C 89.75 298.640625 89.164062 296.363281 89.554688 294.085938 L 95.539062 259.945312 L 279.386719 259.945312 L 285.371094 294.085938 C 285.757812 296.363281 285.109375 298.640625 283.679688 300.394531 Z M 283.679688 300.394531 " fill-opacity="1" fill-rule="nonzero"/></g><g fill="#ffffff" fill-opacity="1"><g transform="translate(51.062436, 212.173391)"><g><path d="M 23.875 -5.984375 C 23.875 -5.722656 23.832031 -5.453125 23.75 -5.171875 C 23.675781 -4.890625 23.519531 -4.617188 23.28125 -4.359375 C 22.507812 -3.453125 21.566406 -2.632812 20.453125 -1.90625 C 19.335938 -1.175781 18.15625 -0.609375 16.90625 -0.203125 C 15.664062 0.191406 14.4375 0.390625 13.21875 0.390625 C 10.65625 0.390625 8.429688 -0.148438 6.546875 -1.234375 C 4.671875 -2.328125 3.21875 -3.851562 2.1875 -5.8125 C 1.164062 -7.769531 0.679688 -10.03125 0.734375 -12.59375 C 0.734375 -15.101562 1.257812 -17.296875 2.3125 -19.171875 C 3.363281 -21.054688 4.832031 -22.523438 6.71875 -23.578125 C 8.613281 -24.628906 10.816406 -25.15625 13.328125 -25.15625 C 15.046875 -25.15625 16.738281 -24.84375 18.40625 -24.21875 C 20.082031 -23.59375 21.488281 -22.671875 22.625 -21.453125 C 23.164062 -20.890625 23.410156 -20.320312 23.359375 -19.75 C 23.304688 -19.175781 23.066406 -18.710938 22.640625 -18.359375 C 22.210938 -18.015625 21.691406 -17.851562 21.078125 -17.875 C 20.472656 -17.90625 19.890625 -18.21875 19.328125 -18.8125 C 18.492188 -19.695312 17.550781 -20.332031 16.5 -20.71875 C 15.445312 -21.101562 14.390625 -21.296875 13.328125 -21.296875 C 11.722656 -21.296875 10.304688 -20.925781 9.078125 -20.1875 C 7.847656 -19.457031 6.894531 -18.429688 6.21875 -17.109375 C 5.539062 -15.785156 5.203125 -14.242188 5.203125 -12.484375 C 5.234375 -10.742188 5.582031 -9.195312 6.25 -7.84375 C 6.925781 -6.5 7.867188 -5.441406 9.078125 -4.671875 C 10.285156 -3.910156 11.675781 -3.53125 13.25 -3.53125 C 14.394531 -3.53125 15.53125 -3.78125 16.65625 -4.28125 C 17.78125 -4.789062 18.71875 -5.488281 19.46875 -6.375 L 19.46875 -10.34375 L 13.796875 -10.34375 C 13.078125 -10.34375 12.539062 -10.535156 12.1875 -10.921875 C 11.832031 -11.304688 11.65625 -11.734375 11.65625 -12.203125 C 11.65625 -12.722656 11.832031 -13.179688 12.1875 -13.578125 C 12.539062 -13.984375 13.078125 -14.1875 13.796875 -14.1875 L 21.53125 -14.1875 C 22.4375 -14.1875 23.050781 -13.988281 23.375 -13.59375 C 23.707031 -13.207031 23.875 -12.707031 23.875 -12.09375 Z M 23.875 -5.984375 "/></g></g></g><g fill="#ffffff" fill-opacity="1"><g transform="translate(80.293946, 212.173391)"><g><path d="M 4.546875 0 C 3.710938 0 3.113281 -0.179688 2.75 -0.546875 C 2.394531 -0.910156 2.21875 -1.425781 2.21875 -2.09375 L 2.21875 -22.78125 C 2.21875 -23.457031 2.457031 -23.957031 2.9375 -24.28125 C 3.414062 -24.601562 3.941406 -24.765625 4.515625 -24.765625 C 5.054688 -24.765625 5.566406 -24.601562 6.046875 -24.28125 C 6.523438 -23.957031 6.765625 -23.457031 6.765625 -22.78125 L 6.765625 -3.890625 L 19.515625 -3.890625 C 20.265625 -3.890625 20.835938 -3.679688 21.234375 -3.265625 C 21.640625 -2.847656 21.84375 -2.40625 21.84375 -1.9375 C 21.84375 -1.445312 21.640625 -1 21.234375 -0.59375 C 20.835938 -0.195312 20.265625 0 19.515625 0 Z M 4.546875 0 "/></g></g></g><g fill="#ffffff" fill-opacity="1"><g transform="translate(104.511078, 212.173391)"><g><path d="M 26.234375 -12.359375 C 26.234375 -9.816406 25.707031 -7.585938 24.65625 -5.671875 C 23.613281 -3.753906 22.144531 -2.265625 20.25 -1.203125 C 18.363281 -0.140625 16.148438 0.390625 13.609375 0.390625 C 11.066406 0.390625 8.835938 -0.140625 6.921875 -1.203125 C 5.003906 -2.265625 3.515625 -3.753906 2.453125 -5.671875 C 1.390625 -7.585938 0.859375 -9.816406 0.859375 -12.359375 C 0.859375 -14.921875 1.390625 -17.160156 2.453125 -19.078125 C 3.515625 -21.003906 5.003906 -22.5 6.921875 -23.5625 C 8.835938 -24.625 11.066406 -25.15625 13.609375 -25.15625 C 16.148438 -25.15625 18.363281 -24.625 20.25 -23.5625 C 22.144531 -22.5 23.613281 -21.003906 24.65625 -19.078125 C 25.707031 -17.160156 26.234375 -14.921875 26.234375 -12.359375 Z M 13.609375 -3.578125 C 15.242188 -3.578125 16.660156 -3.945312 17.859375 -4.6875 C 19.066406 -5.425781 20.003906 -6.453125 20.671875 -7.765625 C 21.347656 -9.085938 21.6875 -10.617188 21.6875 -12.359375 C 21.6875 -14.117188 21.347656 -15.660156 20.671875 -16.984375 C 20.003906 -18.304688 19.066406 -19.335938 17.859375 -20.078125 C 16.660156 -20.816406 15.242188 -21.1875 13.609375 -21.1875 C 11.972656 -21.1875 10.539062 -20.816406 9.3125 -20.078125 C 8.082031 -19.335938 7.128906 -18.304688 6.453125 -16.984375 C 5.773438 -15.660156 5.4375 -14.117188 5.4375 -12.359375 C 5.4375 -10.617188 5.773438 -9.085938 6.453125 -7.765625 C 7.128906 -6.453125 8.082031 -5.425781 9.3125 -4.6875 C 10.539062 -3.945312 11.972656 -3.578125 13.609375 -3.578125 Z M 13.609375 -3.578125 "/></g></g></g><g fill="#ffffff" fill-opacity="1"><g transform="translate(135.297426, 212.173391)"><g><path d="M 13.25 -24.765625 C 14.1875 -24.765625 15.203125 -24.679688 16.296875 -24.515625 C 17.398438 -24.347656 18.445312 -24.03125 19.4375 -23.5625 C 20.425781 -23.09375 21.234375 -22.40625 21.859375 -21.5 C 22.492188 -20.59375 22.8125 -19.410156 22.8125 -17.953125 C 22.8125 -17.128906 22.609375 -16.273438 22.203125 -15.390625 C 21.804688 -14.515625 21.25 -13.867188 20.53125 -13.453125 C 21.875 -12.910156 22.875 -12.125 23.53125 -11.09375 C 24.195312 -10.070312 24.53125 -8.875 24.53125 -7.5 C 24.53125 -6 24.222656 -4.757812 23.609375 -3.78125 C 23.003906 -2.8125 22.195312 -2.046875 21.1875 -1.484375 C 20.175781 -0.929688 19.054688 -0.546875 17.828125 -0.328125 C 16.597656 -0.109375 15.347656 0 14.078125 0 L 4.59375 0 C 3.96875 0 3.425781 -0.195312 2.96875 -0.59375 C 2.519531 -1 2.296875 -1.488281 2.296875 -2.0625 L 2.296875 -22.703125 C 2.296875 -23.296875 2.519531 -23.785156 2.96875 -24.171875 C 3.425781 -24.566406 3.96875 -24.765625 4.59375 -24.765625 Z M 13.25 -20.921875 L 6.796875 -20.921875 L 6.796875 -14.890625 L 13.375 -14.890625 C 14.695312 -14.890625 15.851562 -15.128906 16.84375 -15.609375 C 17.84375 -16.085938 18.34375 -16.867188 18.34375 -17.953125 C 18.34375 -18.816406 18.050781 -19.453125 17.46875 -19.859375 C 16.882812 -20.273438 16.195312 -20.554688 15.40625 -20.703125 C 14.625 -20.847656 13.90625 -20.921875 13.25 -20.921875 Z M 15.203125 -11.046875 L 6.796875 -11.046875 L 6.796875 -3.84375 L 14.078125 -3.84375 C 15.003906 -3.84375 15.921875 -3.929688 16.828125 -4.109375 C 17.734375 -4.296875 18.476562 -4.65625 19.0625 -5.1875 C 19.644531 -5.71875 19.9375 -6.488281 19.9375 -7.5 C 19.9375 -8.695312 19.476562 -9.585938 18.5625 -10.171875 C 17.644531 -10.753906 16.523438 -11.046875 15.203125 -11.046875 Z M 15.203125 -11.046875 "/></g></g></g><g fill="#ffffff" fill-opacity="1"><g transform="translate(163.829251, 212.173391)"><g><path d="M 12.71875 -25.15625 C 13.125 -25.15625 13.507812 -25.066406 13.875 -24.890625 C 14.238281 -24.722656 14.507812 -24.445312 14.6875 -24.0625 L 25.703125 -2.484375 C 26.035156 -1.910156 26.125 -1.410156 25.96875 -0.984375 C 25.8125 -0.554688 25.507812 -0.222656 25.0625 0.015625 C 24.625 0.265625 24.160156 0.390625 23.671875 0.390625 C 23.304688 0.390625 22.9375 0.289062 22.5625 0.09375 C 22.1875 -0.09375 21.894531 -0.367188 21.6875 -0.734375 L 18.96875 -6.140625 L 6.453125 -6.140625 L 3.734375 -0.734375 C 3.546875 -0.316406 3.265625 -0.0234375 2.890625 0.140625 C 2.515625 0.304688 2.144531 0.390625 1.78125 0.390625 C 1.34375 0.390625 0.910156 0.265625 0.484375 0.015625 C 0.0546875 -0.222656 -0.25 -0.554688 -0.4375 -0.984375 C -0.632812 -1.410156 -0.617188 -1.875 -0.390625 -2.375 L 10.6875 -24.0625 C 10.894531 -24.5 11.160156 -24.789062 11.484375 -24.9375 C 11.804688 -25.082031 12.21875 -25.15625 12.71875 -25.15625 Z M 12.71875 -18.578125 L 8.359375 -9.90625 L 17.0625 -9.90625 Z M 12.71875 -18.578125 "/></g></g></g><g fill="#ffffff" fill-opacity="1"><g transform="translate(192.7498, 212.173391)"><g><path d="M 4.546875 0 C 3.710938 0 3.113281 -0.179688 2.75 -0.546875 C 2.394531 -0.910156 2.21875 -1.425781 2.21875 -2.09375 L 2.21875 -22.78125 C 2.21875 -23.457031 2.457031 -23.957031 2.9375 -24.28125 C 3.414062 -24.601562 3.941406 -24.765625 4.515625 -24.765625 C 5.054688 -24.765625 5.566406 -24.601562 6.046875 -24.28125 C 6.523438 -23.957031 6.765625 -23.457031 6.765625 -22.78125 L 6.765625 -3.890625 L 19.515625 -3.890625 C 20.265625 -3.890625 20.835938 -3.679688 21.234375 -3.265625 C 21.640625 -2.847656 21.84375 -2.40625 21.84375 -1.9375 C 21.84375 -1.445312 21.640625 -1 21.234375 -0.59375 C 20.835938 -0.195312 20.265625 0 19.515625 0 Z M 4.546875 0 "/></g></g></g><g fill="#ffffff" fill-opacity="1"><g transform="translate(216.96693, 212.173391)"><g><path d="M 13.609375 -25.15625 C 15.523438 -25.15625 17.296875 -24.867188 18.921875 -24.296875 C 20.554688 -23.722656 22.007812 -22.722656 23.28125 -21.296875 C 23.800781 -20.703125 24.03125 -20.132812 23.96875 -19.59375 C 23.90625 -19.050781 23.660156 -18.609375 23.234375 -18.265625 C 22.804688 -17.929688 22.300781 -17.773438 21.71875 -17.796875 C 21.132812 -17.828125 20.582031 -18.113281 20.0625 -18.65625 C 19.101562 -19.71875 18.082031 -20.40625 17 -20.71875 C 15.925781 -21.03125 14.78125 -21.1875 13.5625 -21.1875 C 11.9375 -21.1875 10.503906 -20.828125 9.265625 -20.109375 C 8.035156 -19.398438 7.078125 -18.410156 6.390625 -17.140625 C 5.703125 -15.867188 5.359375 -14.378906 5.359375 -12.671875 C 5.359375 -10.859375 5.707031 -9.265625 6.40625 -7.890625 C 7.113281 -6.515625 8.09375 -5.453125 9.34375 -4.703125 C 10.601562 -3.953125 12.078125 -3.578125 13.765625 -3.578125 C 14.984375 -3.578125 16.203125 -3.882812 17.421875 -4.5 C 18.640625 -5.125 19.609375 -5.878906 20.328125 -6.765625 C 20.847656 -7.390625 21.410156 -7.742188 22.015625 -7.828125 C 22.628906 -7.921875 23.160156 -7.816406 23.609375 -7.515625 C 24.066406 -7.222656 24.335938 -6.800781 24.421875 -6.25 C 24.515625 -5.707031 24.332031 -5.101562 23.875 -4.4375 C 23.164062 -3.445312 22.253906 -2.585938 21.140625 -1.859375 C 20.023438 -1.140625 18.820312 -0.582031 17.53125 -0.1875 C 16.238281 0.195312 14.957031 0.390625 13.6875 0.390625 C 11.113281 0.390625 8.867188 -0.148438 6.953125 -1.234375 C 5.035156 -2.328125 3.546875 -3.851562 2.484375 -5.8125 C 1.421875 -7.769531 0.890625 -10.054688 0.890625 -12.671875 C 0.890625 -15.179688 1.445312 -17.367188 2.5625 -19.234375 C 3.675781 -21.109375 5.195312 -22.5625 7.125 -23.59375 C 9.0625 -24.632812 11.222656 -25.15625 13.609375 -25.15625 Z M 13.609375 -25.15625 "/></g></g></g><g fill="#ffffff" fill-opacity="1"><g transform="translate(244.721337, 212.173391)"><g><path d="M 12.71875 -25.15625 C 13.125 -25.15625 13.507812 -25.066406 13.875 -24.890625 C 14.238281 -24.722656 14.507812 -24.445312 14.6875 -24.0625 L 25.703125 -2.484375 C 26.035156 -1.910156 26.125 -1.410156 25.96875 -0.984375 C 25.8125 -0.554688 25.507812 -0.222656 25.0625 0.015625 C 24.625 0.265625 24.160156 0.390625 23.671875 0.390625 C 23.304688 0.390625 22.9375 0.289062 22.5625 0.09375 C 22.1875 -0.09375 21.894531 -0.367188 21.6875 -0.734375 L 18.96875 -6.140625 L 6.453125 -6.140625 L 3.734375 -0.734375 C 3.546875 -0.316406 3.265625 -0.0234375 2.890625 0.140625 C 2.515625 0.304688 2.144531 0.390625 1.78125 0.390625 C 1.34375 0.390625 0.910156 0.265625 0.484375 0.015625 C 0.0546875 -0.222656 -0.25 -0.554688 -0.4375 -0.984375 C -0.632812 -1.410156 -0.617188 -1.875 -0.390625 -2.375 L 10.6875 -24.0625 C 10.894531 -24.5 11.160156 -24.789062 11.484375 -24.9375 C 11.804688 -25.082031 12.21875 -25.15625 12.71875 -25.15625 Z M 12.71875 -18.578125 L 8.359375 -9.90625 L 17.0625 -9.90625 Z M 12.71875 -18.578125 "/></g></g></g><g fill="#ffffff" fill-opacity="1"><g transform="translate(273.641879, 212.173391)"><g><path d="M 22.4375 -3.8125 C 23.03125 -3.1875 23.3125 -2.582031 23.28125 -2 C 23.257812 -1.414062 23.039062 -0.9375 22.625 -0.5625 C 22.207031 -0.1875 21.71875 0.00390625 21.15625 0.015625 C 20.601562 0.0234375 20.082031 -0.222656 19.59375 -0.734375 L 12.640625 -8.15625 L 6.765625 -8.15625 L 6.765625 -2.015625 C 6.765625 -1.367188 6.523438 -0.867188 6.046875 -0.515625 C 5.566406 -0.171875 5.054688 0 4.515625 0 C 3.941406 0 3.421875 -0.164062 2.953125 -0.5 C 2.484375 -0.84375 2.25 -1.335938 2.25 -1.984375 L 2.25 -22.734375 C 2.25 -23.335938 2.460938 -23.828125 2.890625 -24.203125 C 3.316406 -24.578125 3.859375 -24.765625 4.515625 -24.765625 L 13.171875 -24.765625 C 15.503906 -24.765625 17.445312 -24.390625 19 -23.640625 C 20.5625 -22.890625 21.726562 -21.878906 22.5 -20.609375 C 23.28125 -19.335938 23.671875 -17.921875 23.671875 -16.359375 C 23.671875 -14.546875 23.1875 -12.957031 22.21875 -11.59375 C 21.25 -10.238281 19.765625 -9.273438 17.765625 -8.703125 Z M 6.765625 -11.9375 L 13.21875 -11.9375 C 15.289062 -11.9375 16.804688 -12.367188 17.765625 -13.234375 C 18.722656 -14.109375 19.175781 -15.140625 19.125 -16.328125 C 19.101562 -17.617188 18.570312 -18.691406 17.53125 -19.546875 C 16.5 -20.410156 15.0625 -20.84375 13.21875 -20.84375 L 6.765625 -20.84375 Z M 6.765625 -11.9375 "/></g></g></g><g fill="#ffffff" fill-opacity="1"><g transform="translate(301.00757, 212.173391)"><g><path d="M 20.140625 -24.765625 C 20.890625 -24.765625 21.457031 -24.554688 21.84375 -24.140625 C 22.238281 -23.722656 22.4375 -23.253906 22.4375 -22.734375 C 22.4375 -22.242188 22.238281 -21.789062 21.84375 -21.375 C 21.457031 -20.96875 20.890625 -20.765625 20.140625 -20.765625 L 12.90625 -20.765625 L 12.953125 -2.0625 C 12.953125 -1.363281 12.695312 -0.84375 12.1875 -0.5 C 11.675781 -0.164062 11.164062 0 10.65625 0 C 10.101562 0 9.585938 -0.164062 9.109375 -0.5 C 8.628906 -0.84375 8.390625 -1.363281 8.390625 -2.0625 L 8.390625 -20.765625 L 1.203125 -20.765625 C 0.453125 -20.765625 -0.09375 -20.96875 -0.4375 -21.375 C -0.789062 -21.789062 -0.96875 -22.242188 -0.96875 -22.734375 C -0.96875 -23.253906 -0.789062 -23.722656 -0.4375 -24.140625 C -0.09375 -24.554688 0.453125 -24.765625 1.203125 -24.765625 Z M 20.140625 -24.765625 "/></g></g></g><g fill="#ffffff" fill-opacity="1"><g transform="translate(86.041879, 234.071789)"><g><path d="M 10.609375 -5 C 10.609375 -3.96875 10.394531 -3.0625 9.96875 -2.28125 C 9.550781 -1.507812 8.957031 -0.910156 8.1875 -0.484375 C 7.425781 -0.0546875 6.53125 0.15625 5.5 0.15625 C 4.476562 0.15625 3.578125 -0.0546875 2.796875 -0.484375 C 2.023438 -0.910156 1.421875 -1.507812 0.984375 -2.28125 C 0.554688 -3.0625 0.34375 -3.96875 0.34375 -5 C 0.34375 -6.039062 0.554688 -6.945312 0.984375 -7.71875 C 1.421875 -8.488281 2.023438 -9.085938 2.796875 -9.515625 C 3.578125 -9.953125 4.476562 -10.171875 5.5 -10.171875 C 6.53125 -10.171875 7.425781 -9.953125 8.1875 -9.515625 C 8.957031 -9.085938 9.550781 -8.488281 9.96875 -7.71875 C 10.394531 -6.945312 10.609375 -6.039062 10.609375 -5 Z M 5.5 -1.453125 C 6.15625 -1.453125 6.726562 -1.597656 7.21875 -1.890625 C 7.707031 -2.191406 8.085938 -2.609375 8.359375 -3.140625 C 8.628906 -3.679688 8.765625 -4.300781 8.765625 -5 C 8.765625 -5.707031 8.628906 -6.328125 8.359375 -6.859375 C 8.085938 -7.398438 7.707031 -7.816406 7.21875 -8.109375 C 6.726562 -8.410156 6.15625 -8.5625 5.5 -8.5625 C 4.84375 -8.5625 4.265625 -8.410156 3.765625 -8.109375 C 3.265625 -7.816406 2.878906 -7.398438 2.609375 -6.859375 C 2.335938 -6.328125 2.203125 -5.707031 2.203125 -5 C 2.203125 -4.300781 2.335938 -3.679688 2.609375 -3.140625 C 2.878906 -2.609375 3.265625 -2.191406 3.765625 -1.890625 C 4.265625 -1.597656 4.84375 -1.453125 5.5 -1.453125 Z M 5.5 -1.453125 "/></g></g></g><g fill="#ffffff" fill-opacity="1"><g transform="translate(102.359687, 234.071789)"><g><path d="M 7.578125 -9.25 C 7.578125 -9.5 7.675781 -9.6875 7.875 -9.8125 C 8.082031 -9.945312 8.300781 -10.015625 8.53125 -10.015625 C 8.769531 -10.015625 8.984375 -9.953125 9.171875 -9.828125 C 9.359375 -9.710938 9.453125 -9.519531 9.453125 -9.25 L 9.453125 -0.9375 C 9.453125 -0.625 9.335938 -0.390625 9.109375 -0.234375 C 8.890625 -0.078125 8.648438 0 8.390625 0 C 8.210938 0 8.035156 -0.0390625 7.859375 -0.125 C 7.691406 -0.207031 7.554688 -0.316406 7.453125 -0.453125 L 2.640625 -6.65625 L 2.703125 -5.765625 L 2.703125 -0.828125 C 2.703125 -0.535156 2.601562 -0.320312 2.40625 -0.1875 C 2.21875 -0.0625 2.007812 0 1.78125 0 C 1.539062 0 1.320312 -0.0625 1.125 -0.1875 C 0.925781 -0.320312 0.828125 -0.535156 0.828125 -0.828125 L 0.828125 -9.046875 C 0.828125 -9.367188 0.925781 -9.609375 1.125 -9.765625 C 1.320312 -9.929688 1.546875 -10.015625 1.796875 -10.015625 C 1.992188 -10.015625 2.160156 -9.972656 2.296875 -9.890625 C 2.441406 -9.816406 2.578125 -9.703125 2.703125 -9.546875 L 7.640625 -3.125 L 7.578125 -4.1875 Z M 7.578125 -9.25 "/></g></g></g><g fill="#ffffff" fill-opacity="1"><g transform="translate(117.828581, 234.071789)"><g><path d="M 1.84375 0 C 1.507812 0 1.265625 -0.0703125 1.109375 -0.21875 C 0.960938 -0.363281 0.890625 -0.570312 0.890625 -0.84375 L 0.890625 -9.21875 C 0.890625 -9.488281 0.988281 -9.6875 1.1875 -9.8125 C 1.382812 -9.945312 1.597656 -10.015625 1.828125 -10.015625 C 2.046875 -10.015625 2.25 -9.945312 2.4375 -9.8125 C 2.632812 -9.6875 2.734375 -9.488281 2.734375 -9.21875 L 2.734375 -1.578125 L 7.890625 -1.578125 C 8.191406 -1.578125 8.421875 -1.488281 8.578125 -1.3125 C 8.742188 -1.144531 8.828125 -0.96875 8.828125 -0.78125 C 8.828125 -0.582031 8.742188 -0.398438 8.578125 -0.234375 C 8.421875 -0.078125 8.191406 0 7.890625 0 Z M 1.84375 0 "/></g></g></g><g fill="#ffffff" fill-opacity="1"><g transform="translate(131.489632, 234.071789)"><g><path d="M 0.703125 -9.15625 C 0.703125 -9.457031 0.796875 -9.675781 0.984375 -9.8125 C 1.171875 -9.945312 1.382812 -10.015625 1.625 -10.015625 C 1.851562 -10.015625 2.0625 -9.945312 2.25 -9.8125 C 2.445312 -9.675781 2.546875 -9.457031 2.546875 -9.15625 L 2.546875 -0.796875 C 2.546875 -0.535156 2.445312 -0.335938 2.25 -0.203125 C 2.0625 -0.0664062 1.851562 0 1.625 0 C 1.382812 0 1.171875 -0.0625 0.984375 -0.1875 C 0.796875 -0.320312 0.703125 -0.523438 0.703125 -0.796875 Z M 0.703125 -9.15625 "/></g></g></g><g fill="#ffffff" fill-opacity="1"><g transform="translate(139.554204, 234.071789)"><g><path d="M 7.578125 -9.25 C 7.578125 -9.5 7.675781 -9.6875 7.875 -9.8125 C 8.082031 -9.945312 8.300781 -10.015625 8.53125 -10.015625 C 8.769531 -10.015625 8.984375 -9.953125 9.171875 -9.828125 C 9.359375 -9.710938 9.453125 -9.519531 9.453125 -9.25 L 9.453125 -0.9375 C 9.453125 -0.625 9.335938 -0.390625 9.109375 -0.234375 C 8.890625 -0.078125 8.648438 0 8.390625 0 C 8.210938 0 8.035156 -0.0390625 7.859375 -0.125 C 7.691406 -0.207031 7.554688 -0.316406 7.453125 -0.453125 L 2.640625 -6.65625 L 2.703125 -5.765625 L 2.703125 -0.828125 C 2.703125 -0.535156 2.601562 -0.320312 2.40625 -0.1875 C 2.21875 -0.0625 2.007812 0 1.78125 0 C 1.539062 0 1.320312 -0.0625 1.125 -0.1875 C 0.925781 -0.320312 0.828125 -0.535156 0.828125 -0.828125 L 0.828125 -9.046875 C 0.828125 -9.367188 0.925781 -9.609375 1.125 -9.765625 C 1.320312 -9.929688 1.546875 -10.015625 1.796875 -10.015625 C 1.992188 -10.015625 2.160156 -9.972656 2.296875 -9.890625 C 2.441406 -9.816406 2.578125 -9.703125 2.703125 -9.546875 L 7.640625 -3.125 L 7.578125 -4.1875 Z M 7.578125 -9.25 "/></g></g></g><g fill="#ffffff" fill-opacity="1"><g transform="translate(155.023101, 234.071789)"><g><path d="M 8.1875 -1.578125 C 8.457031 -1.578125 8.664062 -1.488281 8.8125 -1.3125 C 8.96875 -1.132812 9.046875 -0.945312 9.046875 -0.75 C 9.046875 -0.5625 8.972656 -0.390625 8.828125 -0.234375 C 8.691406 -0.078125 8.476562 0 8.1875 0 L 1.953125 0 C 1.640625 0 1.382812 -0.0859375 1.1875 -0.265625 C 1 -0.453125 0.90625 -0.675781 0.90625 -0.9375 L 0.90625 -9.078125 C 0.90625 -9.335938 1 -9.554688 1.1875 -9.734375 C 1.382812 -9.921875 1.640625 -10.015625 1.953125 -10.015625 L 8.1875 -10.015625 C 8.46875 -10.015625 8.675781 -9.9375 8.8125 -9.78125 C 8.945312 -9.632812 9.015625 -9.460938 9.015625 -9.265625 C 9.015625 -9.066406 8.941406 -8.882812 8.796875 -8.71875 C 8.660156 -8.550781 8.457031 -8.46875 8.1875 -8.46875 L 2.703125 -8.46875 L 2.703125 -5.71875 L 7.90625 -5.71875 C 8.175781 -5.71875 8.378906 -5.632812 8.515625 -5.46875 C 8.648438 -5.3125 8.71875 -5.132812 8.71875 -4.9375 C 8.71875 -4.75 8.648438 -4.578125 8.515625 -4.421875 C 8.378906 -4.265625 8.175781 -4.1875 7.90625 -4.1875 L 2.703125 -4.1875 L 2.703125 -1.578125 Z M 8.1875 -1.578125 "/></g></g></g><g fill="#ffffff" fill-opacity="1"><g transform="translate(169.674537, 234.071789)"><g/></g></g><g fill="#ffffff" fill-opacity="1"><g transform="translate(178.572301, 234.071789)"><g><path d="M 0.109375 -2.375 C 0.0351562 -2.675781 0.109375 -2.914062 0.328125 -3.09375 C 0.546875 -3.269531 0.789062 -3.359375 1.0625 -3.359375 C 1.28125 -3.359375 1.46875 -3.304688 1.625 -3.203125 C 1.789062 -3.109375 1.894531 -2.957031 1.9375 -2.75 C 2.050781 -2.414062 2.265625 -2.15625 2.578125 -1.96875 C 2.898438 -1.789062 3.257812 -1.664062 3.65625 -1.59375 C 4.0625 -1.53125 4.4375 -1.5 4.78125 -1.5 C 5.050781 -1.5 5.347656 -1.519531 5.671875 -1.5625 C 5.992188 -1.601562 6.300781 -1.675781 6.59375 -1.78125 C 6.894531 -1.894531 7.140625 -2.050781 7.328125 -2.25 C 7.515625 -2.445312 7.609375 -2.703125 7.609375 -3.015625 C 7.609375 -3.347656 7.46875 -3.59375 7.1875 -3.75 C 6.914062 -3.914062 6.5625 -4.03125 6.125 -4.09375 C 5.695312 -4.164062 5.25 -4.21875 4.78125 -4.25 C 4.25 -4.289062 3.710938 -4.351562 3.171875 -4.4375 C 2.628906 -4.519531 2.132812 -4.65625 1.6875 -4.84375 C 1.238281 -5.03125 0.878906 -5.300781 0.609375 -5.65625 C 0.335938 -6.019531 0.203125 -6.503906 0.203125 -7.109375 C 0.203125 -7.640625 0.335938 -8.097656 0.609375 -8.484375 C 0.878906 -8.867188 1.234375 -9.1875 1.671875 -9.4375 C 2.117188 -9.6875 2.597656 -9.867188 3.109375 -9.984375 C 3.617188 -10.109375 4.125 -10.171875 4.625 -10.171875 C 5.164062 -10.171875 5.734375 -10.109375 6.328125 -9.984375 C 6.929688 -9.859375 7.476562 -9.632812 7.96875 -9.3125 C 8.46875 -8.988281 8.835938 -8.539062 9.078125 -7.96875 C 9.171875 -7.675781 9.113281 -7.429688 8.90625 -7.234375 C 8.695312 -7.046875 8.457031 -6.953125 8.1875 -6.953125 C 8.019531 -6.953125 7.859375 -6.988281 7.703125 -7.0625 C 7.554688 -7.144531 7.453125 -7.253906 7.390625 -7.390625 C 7.265625 -7.710938 7.039062 -7.953125 6.71875 -8.109375 C 6.40625 -8.265625 6.0625 -8.363281 5.6875 -8.40625 C 5.3125 -8.457031 4.960938 -8.484375 4.640625 -8.484375 C 4.429688 -8.484375 4.179688 -8.460938 3.890625 -8.421875 C 3.597656 -8.378906 3.316406 -8.304688 3.046875 -8.203125 C 2.773438 -8.097656 2.546875 -7.953125 2.359375 -7.765625 C 2.179688 -7.585938 2.09375 -7.363281 2.09375 -7.09375 C 2.09375 -6.757812 2.222656 -6.503906 2.484375 -6.328125 C 2.742188 -6.160156 3.09375 -6.046875 3.53125 -5.984375 C 3.96875 -5.921875 4.441406 -5.867188 4.953125 -5.828125 C 5.492188 -5.773438 6.035156 -5.710938 6.578125 -5.640625 C 7.117188 -5.578125 7.609375 -5.457031 8.046875 -5.28125 C 8.484375 -5.113281 8.832031 -4.851562 9.09375 -4.5 C 9.363281 -4.15625 9.5 -3.664062 9.5 -3.03125 C 9.5 -2.40625 9.347656 -1.882812 9.046875 -1.46875 C 8.742188 -1.0625 8.351562 -0.738281 7.875 -0.5 C 7.394531 -0.257812 6.878906 -0.09375 6.328125 0 C 5.785156 0.101562 5.269531 0.15625 4.78125 0.15625 C 4.375 0.15625 3.925781 0.113281 3.4375 0.03125 C 2.957031 -0.0390625 2.488281 -0.171875 2.03125 -0.359375 C 1.582031 -0.554688 1.179688 -0.816406 0.828125 -1.140625 C 0.484375 -1.472656 0.242188 -1.882812 0.109375 -2.375 Z M 0.109375 -2.375 "/></g></g></g><g fill="#ffffff" fill-opacity="1"><g transform="translate(193.333779, 234.071789)"><g><path d="M 8.28125 -10.015625 C 8.5 -10.015625 8.707031 -9.945312 8.90625 -9.8125 C 9.113281 -9.675781 9.21875 -9.472656 9.21875 -9.203125 L 9.21875 -0.84375 C 9.21875 -0.5625 9.113281 -0.347656 8.90625 -0.203125 C 8.707031 -0.0664062 8.5 0 8.28125 0 C 8.050781 0 7.84375 -0.0664062 7.65625 -0.203125 C 7.476562 -0.347656 7.390625 -0.5625 7.390625 -0.84375 L 7.390625 -4.09375 L 2.6875 -4.09375 L 2.6875 -0.84375 C 2.6875 -0.550781 2.59375 -0.335938 2.40625 -0.203125 C 2.21875 -0.0664062 2.019531 0 1.8125 0 C 1.582031 0 1.367188 -0.0703125 1.171875 -0.21875 C 0.972656 -0.363281 0.875 -0.570312 0.875 -0.84375 L 0.875 -9.203125 C 0.875 -9.472656 0.960938 -9.675781 1.140625 -9.8125 C 1.328125 -9.945312 1.535156 -10.015625 1.765625 -10.015625 C 1.992188 -10.015625 2.203125 -9.945312 2.390625 -9.8125 C 2.585938 -9.675781 2.6875 -9.472656 2.6875 -9.203125 L 2.6875 -5.609375 L 7.390625 -5.609375 L 7.390625 -9.203125 C 7.390625 -9.472656 7.476562 -9.675781 7.65625 -9.8125 C 7.84375 -9.945312 8.050781 -10.015625 8.28125 -10.015625 Z M 8.28125 -10.015625 "/></g></g></g><g fill="#ffffff" fill-opacity="1"><g transform="translate(208.676922, 234.071789)"><g><path d="M 10.609375 -5 C 10.609375 -3.96875 10.394531 -3.0625 9.96875 -2.28125 C 9.550781 -1.507812 8.957031 -0.910156 8.1875 -0.484375 C 7.425781 -0.0546875 6.53125 0.15625 5.5 0.15625 C 4.476562 0.15625 3.578125 -0.0546875 2.796875 -0.484375 C 2.023438 -0.910156 1.421875 -1.507812 0.984375 -2.28125 C 0.554688 -3.0625 0.34375 -3.96875 0.34375 -5 C 0.34375 -6.039062 0.554688 -6.945312 0.984375 -7.71875 C 1.421875 -8.488281 2.023438 -9.085938 2.796875 -9.515625 C 3.578125 -9.953125 4.476562 -10.171875 5.5 -10.171875 C 6.53125 -10.171875 7.425781 -9.953125 8.1875 -9.515625 C 8.957031 -9.085938 9.550781 -8.488281 9.96875 -7.71875 C 10.394531 -6.945312 10.609375 -6.039062 10.609375 -5 Z M 5.5 -1.453125 C 6.15625 -1.453125 6.726562 -1.597656 7.21875 -1.890625 C 7.707031 -2.191406 8.085938 -2.609375 8.359375 -3.140625 C 8.628906 -3.679688 8.765625 -4.300781 8.765625 -5 C 8.765625 -5.707031 8.628906 -6.328125 8.359375 -6.859375 C 8.085938 -7.398438 7.707031 -7.816406 7.21875 -8.109375 C 6.726562 -8.410156 6.15625 -8.5625 5.5 -8.5625 C 4.84375 -8.5625 4.265625 -8.410156 3.765625 -8.109375 C 3.265625 -7.816406 2.878906 -7.398438 2.609375 -6.859375 C 2.335938 -6.328125 2.203125 -5.707031 2.203125 -5 C 2.203125 -4.300781 2.335938 -3.679688 2.609375 -3.140625 C 2.878906 -2.609375 3.265625 -2.191406 3.765625 -1.890625 C 4.265625 -1.597656 4.84375 -1.453125 5.5 -1.453125 Z M 5.5 -1.453125 "/></g></g></g><g fill="#ffffff" fill-opacity="1"><g transform="translate(224.994735, 234.071789)"><g><path d="M 2.71875 -2.78125 L 2.71875 -0.796875 C 2.71875 -0.523438 2.617188 -0.320312 2.421875 -0.1875 C 2.234375 -0.0625 2.03125 0 1.8125 0 C 1.582031 0 1.375 -0.0625 1.1875 -0.1875 C 1 -0.320312 0.90625 -0.519531 0.90625 -0.78125 L 0.90625 -9.203125 C 0.90625 -9.441406 0.992188 -9.632812 1.171875 -9.78125 C 1.359375 -9.9375 1.578125 -10.015625 1.828125 -10.015625 L 5.03125 -10.015625 C 5.894531 -10.015625 6.632812 -9.859375 7.25 -9.546875 C 7.875 -9.234375 8.347656 -8.800781 8.671875 -8.25 C 8.992188 -7.707031 9.15625 -7.0625 9.15625 -6.3125 C 9.15625 -5.257812 8.789062 -4.40625 8.0625 -3.75 C 7.332031 -3.101562 6.304688 -2.78125 4.984375 -2.78125 Z M 2.71875 -8.453125 L 2.71875 -4.34375 L 4.984375 -4.34375 C 5.753906 -4.34375 6.34375 -4.519531 6.75 -4.875 C 7.164062 -5.238281 7.375 -5.71875 7.375 -6.3125 C 7.375 -6.96875 7.171875 -7.488281 6.765625 -7.875 C 6.359375 -8.257812 5.785156 -8.453125 5.046875 -8.453125 Z M 2.71875 -8.453125 "/></g></g></g><g fill="#ffffff" fill-opacity="1"><g transform="translate(239.661897, 234.071789)"><g><path d="M 2.71875 -2.78125 L 2.71875 -0.796875 C 2.71875 -0.523438 2.617188 -0.320312 2.421875 -0.1875 C 2.234375 -0.0625 2.03125 0 1.8125 0 C 1.582031 0 1.375 -0.0625 1.1875 -0.1875 C 1 -0.320312 0.90625 -0.519531 0.90625 -0.78125 L 0.90625 -9.203125 C 0.90625 -9.441406 0.992188 -9.632812 1.171875 -9.78125 C 1.359375 -9.9375 1.578125 -10.015625 1.828125 -10.015625 L 5.03125 -10.015625 C 5.894531 -10.015625 6.632812 -9.859375 7.25 -9.546875 C 7.875 -9.234375 8.347656 -8.800781 8.671875 -8.25 C 8.992188 -7.707031 9.15625 -7.0625 9.15625 -6.3125 C 9.15625 -5.257812 8.789062 -4.40625 8.0625 -3.75 C 7.332031 -3.101562 6.304688 -2.78125 4.984375 -2.78125 Z M 2.71875 -8.453125 L 2.71875 -4.34375 L 4.984375 -4.34375 C 5.753906 -4.34375 6.34375 -4.519531 6.75 -4.875 C 7.164062 -5.238281 7.375 -5.71875 7.375 -6.3125 C 7.375 -6.96875 7.171875 -7.488281 6.765625 -7.875 C 6.359375 -8.257812 5.785156 -8.453125 5.046875 -8.453125 Z M 2.71875 -8.453125 "/></g></g></g><g fill="#ffffff" fill-opacity="1"><g transform="translate(254.329059, 234.071789)"><g><path d="M 0.703125 -9.15625 C 0.703125 -9.457031 0.796875 -9.675781 0.984375 -9.8125 C 1.171875 -9.945312 1.382812 -10.015625 1.625 -10.015625 C 1.851562 -10.015625 2.0625 -9.945312 2.25 -9.8125 C 2.445312 -9.675781 2.546875 -9.457031 2.546875 -9.15625 L 2.546875 -0.796875 C 2.546875 -0.535156 2.445312 -0.335938 2.25 -0.203125 C 2.0625 -0.0664062 1.851562 0 1.625 0 C 1.382812 0 1.171875 -0.0625 0.984375 -0.1875 C 0.796875 -0.320312 0.703125 -0.523438 0.703125 -0.796875 Z M 0.703125 -9.15625 "/></g></g></g><g fill="#ffffff" fill-opacity="1"><g transform="translate(262.393635, 234.071789)"><g><path d="M 7.578125 -9.25 C 7.578125 -9.5 7.675781 -9.6875 7.875 -9.8125 C 8.082031 -9.945312 8.300781 -10.015625 8.53125 -10.015625 C 8.769531 -10.015625 8.984375 -9.953125 9.171875 -9.828125 C 9.359375 -9.710938 9.453125 -9.519531 9.453125 -9.25 L 9.453125 -0.9375 C 9.453125 -0.625 9.335938 -0.390625 9.109375 -0.234375 C 8.890625 -0.078125 8.648438 0 8.390625 0 C 8.210938 0 8.035156 -0.0390625 7.859375 -0.125 C 7.691406 -0.207031 7.554688 -0.316406 7.453125 -0.453125 L 2.640625 -6.65625 L 2.703125 -5.765625 L 2.703125 -0.828125 C 2.703125 -0.535156 2.601562 -0.320312 2.40625 -0.1875 C 2.21875 -0.0625 2.007812 0 1.78125 0 C 1.539062 0 1.320312 -0.0625 1.125 -0.1875 C 0.925781 -0.320312 0.828125 -0.535156 0.828125 -0.828125 L 0.828125 -9.046875 C 0.828125 -9.367188 0.925781 -9.609375 1.125 -9.765625 C 1.320312 -9.929688 1.546875 -10.015625 1.796875 -10.015625 C 1.992188 -10.015625 2.160156 -9.972656 2.296875 -9.890625 C 2.441406 -9.816406 2.578125 -9.703125 2.703125 -9.546875 L 7.640625 -3.125 L 7.578125 -4.1875 Z M 7.578125 -9.25 "/></g></g></g><g fill="#ffffff" fill-opacity="1"><g transform="translate(277.862532, 234.071789)"><g><path d="M 9.65625 -2.421875 C 9.65625 -2.316406 9.640625 -2.207031 9.609375 -2.09375 C 9.578125 -1.976562 9.515625 -1.867188 9.421875 -1.765625 C 9.097656 -1.390625 8.710938 -1.054688 8.265625 -0.765625 C 7.816406 -0.472656 7.335938 -0.242188 6.828125 -0.078125 C 6.328125 0.078125 5.832031 0.15625 5.34375 0.15625 C 4.300781 0.15625 3.398438 -0.0625 2.640625 -0.5 C 1.890625 -0.9375 1.304688 -1.550781 0.890625 -2.34375 C 0.472656 -3.132812 0.273438 -4.050781 0.296875 -5.09375 C 0.296875 -6.113281 0.507812 -7 0.9375 -7.75 C 1.363281 -8.507812 1.957031 -9.101562 2.71875 -9.53125 C 3.476562 -9.957031 4.367188 -10.171875 5.390625 -10.171875 C 6.078125 -10.171875 6.757812 -10.046875 7.4375 -9.796875 C 8.113281 -9.546875 8.679688 -9.171875 9.140625 -8.671875 C 9.367188 -8.441406 9.472656 -8.210938 9.453125 -7.984375 C 9.429688 -7.753906 9.332031 -7.566406 9.15625 -7.421875 C 8.976562 -7.285156 8.765625 -7.222656 8.515625 -7.234375 C 8.273438 -7.242188 8.039062 -7.367188 7.8125 -7.609375 C 7.476562 -7.960938 7.097656 -8.21875 6.671875 -8.375 C 6.242188 -8.53125 5.816406 -8.609375 5.390625 -8.609375 C 4.742188 -8.609375 4.171875 -8.457031 3.671875 -8.15625 C 3.171875 -7.863281 2.785156 -7.445312 2.515625 -6.90625 C 2.242188 -6.375 2.109375 -5.753906 2.109375 -5.046875 C 2.117188 -4.347656 2.257812 -3.722656 2.53125 -3.171875 C 2.800781 -2.628906 3.179688 -2.203125 3.671875 -1.890625 C 4.160156 -1.585938 4.722656 -1.4375 5.359375 -1.4375 C 5.816406 -1.4375 6.273438 -1.535156 6.734375 -1.734375 C 7.191406 -1.941406 7.570312 -2.222656 7.875 -2.578125 L 7.875 -4.1875 L 5.578125 -4.1875 C 5.285156 -4.1875 5.066406 -4.265625 4.921875 -4.421875 C 4.785156 -4.578125 4.71875 -4.75 4.71875 -4.9375 C 4.71875 -5.144531 4.785156 -5.328125 4.921875 -5.484375 C 5.066406 -5.648438 5.285156 -5.734375 5.578125 -5.734375 L 8.703125 -5.734375 C 9.078125 -5.734375 9.328125 -5.65625 9.453125 -5.5 C 9.585938 -5.34375 9.65625 -5.140625 9.65625 -4.890625 Z M 9.65625 -2.421875 "/></g></g></g></svg>