<svg width="24" height="24" viewBox="0 0 24 24" fill="none" xmlns="http://www.w3.org/2000/svg">
<g clip-path="url(#clip0_200_4960)">
<path d="M18 14C17.781 14 17.567 14.0225 17.3575 14.0565L15.134 9.0025C15.5627 8.62843 15.9064 8.16697 16.142 7.6491C16.3776 7.13123 16.4997 6.56895 16.5 6C16.5 3.7945 14.7055 2 12.5 2C10.2945 2 8.5 3.7945 8.5 6C8.5 6.9 8.8025 7.7285 9.306 8.3975L7.3595 11.2425C6.9239 11.0831 6.46383 11.0011 6 11C3.7945 11 2 12.7945 2 15C2 17.2055 3.7945 19 6 19C8.2055 19 10 17.2055 10 15C9.99972 14.033 9.64745 13.0992 9.009 12.373L10.872 9.65C11.6481 9.99888 12.5157 10.0893 13.347 9.908L15.527 14.8625C15.0515 15.2357 14.667 15.712 14.4025 16.2556C14.138 16.7991 14.0003 17.3955 14 18C14 20.2055 15.7945 22 18 22C20.2055 22 22 20.2055 22 18C22 15.7945 20.2055 14 18 14ZM6 17C4.897 17 4 16.103 4 15C4 13.897 4.897 13 6 13C7.103 13 8 13.897 8 15C8 16.103 7.103 17 6 17ZM10.5 6C10.5 4.897 11.397 4 12.5 4C13.603 4 14.5 4.897 14.5 6C14.5 7.103 13.603 8 12.5 8C11.397 8 10.5 7.103 10.5 6ZM18 20C16.897 20 16 19.103 16 18C16 16.897 16.897 16 18 16C19.103 16 20 16.897 20 18C20 19.103 19.103 20 18 20Z" fill="#FA993A"/>
</g>
<defs>
<clipPath id="clip0_200_4960">
<rect width="24" height="24" fill="white"/>
</clipPath>
</defs>
</svg>
