<svg width="24" height="24" viewBox="0 0 24 24" fill="none" xmlns="http://www.w3.org/2000/svg">
<g clip-path="url(#clip0_200_4961)">
<path d="M20 3H16H14.4985C14.4985 3.0055 14.5 3.0105 14.5 3.016C14.5 4.3965 13.3805 5.516 12 5.516C10.6195 5.516 9.5 4.3965 9.5 3.016C9.5 3.0105 9.5015 3.0055 9.5015 3H8H4C2.9 3 2 3.9 2 5V9C2 10.1 2.9 11 4 11H4.989V19C4.989 20.1 5.889 21 6.989 21H17C18.1 21 19 20.1 19 19V11H20C21.1 11 22 10.1 22 9V5C22 3.9 21.1 3 20 3ZM20 9H17V11V19H6.989V11V9H4V5H7.9615C8.696 6.489 10.2305 7.516 12 7.516C13.7695 7.516 15.304 6.4895 16.0385 5H20V9Z" fill="#FA993A"/>
</g>
<defs>
<clipPath id="clip0_200_4961">
<rect width="24" height="24" fill="white"/>
</clipPath>
</defs>
</svg>
