<svg width="24" height="24" viewBox="0 0 24 24" fill="none" xmlns="http://www.w3.org/2000/svg">
<g clip-path="url(#clip0_200_4773)">
<path d="M20 9C20 7.3455 18.6545 6 17 6H14C13.231 6 12.5315 6.293 12 6.7705C11.4685 6.293 10.769 6 10 6H7C5.3455 6 4 7.3455 4 9V12H2V14V15V20H4V22H6V20H18V22H20V20H22V15V14V12H20V9ZM14 8H17C17.5515 8 18 8.4485 18 9V13C18 13.5515 17.5515 14 17 14H14C13.4485 14 13 13.5515 13 13V9C13 8.4485 13.4485 8 14 8ZM6 9C6 8.4485 6.4485 8 7 8H10C10.5515 8 11 8.4485 11 9V13C11 13.5515 10.5515 14 10 14H7C6.4485 14 6 13.5515 6 13V9ZM20 18H4V16H7H10H14H17H20V18Z" fill="#FA993A"/>
</g>
<defs>
<clipPath id="clip0_200_4773">
<rect width="24" height="24" fill="white"/>
</clipPath>
</defs>
</svg>
