<svg width="17" height="16" viewBox="0 0 17 16" fill="none" xmlns="http://www.w3.org/2000/svg">
<g clip-path="url(#clip0_333_1906)">
<path fill-rule="evenodd" clip-rule="evenodd" d="M16.2083 2.66699H1.54167C1.17348 2.66699 0.875 2.96547 0.875 3.33366C0.875 3.70185 1.17348 4.00032 1.54167 4.00032H16.2083C16.5765 4.00032 16.875 3.70185 16.875 3.33366C16.875 2.96547 16.5765 2.66699 16.2083 2.66699ZM16.2083 7.33325H1.54167C1.17348 7.33325 0.875 7.63173 0.875 7.99992C0.875 8.36811 1.17348 8.66659 1.54167 8.66659H16.2083C16.5765 8.66659 16.875 8.36811 16.875 7.99992C16.875 7.63173 16.5765 7.33325 16.2083 7.33325ZM1.54167 12.0001H16.2083C16.5765 12.0001 16.875 12.2986 16.875 12.6668C16.875 13.035 16.5765 13.3335 16.2083 13.3335H1.54167C1.17348 13.3335 0.875 13.035 0.875 12.6668C0.875 12.2986 1.17348 12.0001 1.54167 12.0001Z" fill="#D2D6DB"/>
</g>
<defs>
<clipPath id="clip0_333_1906">
<rect width="16" height="16" fill="white" transform="translate(0.875)"/>
</clipPath>
</defs>
</svg>
