<svg width="17" height="16" viewBox="0 0 17 16" fill="none" xmlns="http://www.w3.org/2000/svg">
<g clip-path="url(#clip0_333_1674)">
<path d="M15.5393 6.04591L10.4826 0.988578C9.85675 0.36457 9.00903 0.0141602 8.12525 0.0141602C7.24148 0.0141602 6.39376 0.36457 5.76792 0.988578L0.711252 6.04591C0.524869 6.2311 0.377099 6.45144 0.276507 6.69417C0.175916 6.93689 0.124504 7.19717 0.125252 7.45991V14.0046C0.125252 14.535 0.335966 15.0437 0.711039 15.4188C1.08611 15.7939 1.59482 16.0046 2.12525 16.0046H14.1253C14.6557 16.0046 15.1644 15.7939 15.5395 15.4188C15.9145 15.0437 16.1253 14.535 16.1253 14.0046V7.45991C16.126 7.19717 16.0746 6.93689 15.974 6.69417C15.8734 6.45144 15.7256 6.2311 15.5393 6.04591ZM10.1253 14.6712H6.12525V12.0486C6.12525 11.5181 6.33597 11.0094 6.71104 10.6344C7.08611 10.2593 7.59482 10.0486 8.12525 10.0486C8.65569 10.0486 9.16439 10.2593 9.53947 10.6344C9.91454 11.0094 10.1253 11.5181 10.1253 12.0486V14.6712ZM14.7919 14.0046C14.7919 14.1814 14.7217 14.351 14.5967 14.476C14.4716 14.601 14.3021 14.6712 14.1253 14.6712H11.4586V12.0486C11.4586 11.1645 11.1074 10.3167 10.4823 9.69156C9.85715 9.06643 9.00931 8.71524 8.12525 8.71524C7.2412 8.71524 6.39335 9.06643 5.76823 9.69156C5.14311 10.3167 4.79192 11.1645 4.79192 12.0486V14.6712H2.12525C1.94844 14.6712 1.77887 14.601 1.65385 14.476C1.52882 14.351 1.45859 14.1814 1.45859 14.0046V7.45991C1.4592 7.28323 1.52938 7.1139 1.65392 6.98858L6.71059 1.93324C7.08639 1.5592 7.59503 1.34921 8.12525 1.34921C8.65548 1.34921 9.16412 1.5592 9.53992 1.93324L14.5966 6.99058C14.7206 7.11541 14.7908 7.28392 14.7919 7.45991V14.0046Z" fill="#D2D6DB"/>
</g>
<defs>
<clipPath id="clip0_333_1674">
<rect width="16" height="16" fill="white" transform="translate(0.125)"/>
</clipPath>
</defs>
</svg>
