<svg width="17" height="17" viewBox="0 0 17 17" fill="none" xmlns="http://www.w3.org/2000/svg">
<path fill-rule="evenodd" clip-rule="evenodd" d="M6.03164 0.979004H11.9264C14.7169 0.979004 16.979 3.24114 16.979 6.03164V11.9264C16.979 14.7169 14.7169 16.979 11.9264 16.979H6.03164C3.24114 16.979 0.979004 14.7169 0.979004 11.9264V6.03164C0.979004 3.24114 3.24114 0.979004 6.03164 0.979004ZM11.9264 15.7158C14.0173 15.7112 15.7112 14.0173 15.7158 11.9264V6.03164C15.7112 3.94069 14.0173 2.24679 11.9264 2.24216H6.03164C3.94069 2.24679 2.24679 3.94069 2.24216 6.03164V11.9264C2.24679 14.0173 3.94069 15.7112 6.03164 15.7158H11.9264Z" fill="black" fill-opacity="0.2"/>
<path d="M11.6569 4.76848C11.31 4.77301 11.0299 5.05314 11.0253 5.40006C11.0165 5.93165 10.7951 6.43756 10.4106 6.80469C10.026 7.17183 9.51043 7.36958 8.979 7.35374C7.88441 7.38683 6.96931 6.52822 6.93269 5.43374C6.93269 5.08493 6.64992 4.80216 6.30111 4.80216C5.9523 4.80216 5.66953 5.08493 5.66953 5.43374C5.70638 7.22577 7.1869 8.64978 8.979 8.6169C10.7711 8.64978 12.2516 7.22577 12.2885 5.43374C12.2977 5.26048 12.2353 5.09104 12.1158 4.96521C11.9964 4.83938 11.8304 4.76823 11.6569 4.76848Z" fill="black" fill-opacity="0.2"/>
</svg>
