<svg width="24" height="24" viewBox="0 0 24 24" fill="none" xmlns="http://www.w3.org/2000/svg">
<g clip-path="url(#clip0_200_5622)">
<path d="M9 15.489C9.55228 15.489 10 15.0413 10 14.489C10 13.9367 9.55228 13.489 9 13.489C8.44772 13.489 8 13.9367 8 14.489C8 15.0413 8.44772 15.489 9 15.489Z" fill="#FA993A"/>
<path d="M15 15.489C15.5523 15.489 16 15.0413 16 14.489C16 13.9367 15.5523 13.489 15 13.489C14.4477 13.489 14 13.9367 14 14.489C14 15.0413 14.4477 15.489 15 15.489Z" fill="#FA993A"/>
<path d="M16.487 10.432C17.4045 9.68001 18 8.23101 18 6.48901C18 3.92351 16.71 1.98901 15 1.98901C13.29 1.98901 12 3.92351 12 6.48901C12 7.44051 12.178 8.30451 12.4885 9.01601C12.326 9.00551 12.165 8.98901 12 8.98901C11.835 8.98901 11.674 9.00551 11.5115 9.01601C11.822 8.30451 12 7.44051 12 6.48901C12 3.92351 10.71 1.98901 9 1.98901C7.29 1.98901 6 3.92351 6 6.48901C6 8.23101 6.5955 9.68051 7.513 10.432C5.376 11.917 4 14.313 4 16.489C4 19.8305 7.14 21.989 12 21.989C16.86 21.989 20 19.8305 20 16.489C20 14.313 18.624 11.917 16.487 10.432ZM15 3.98901C15.2905 3.98901 16 4.86501 16 6.48901C16 8.11301 15.2905 8.98901 15 8.98901C14.7095 8.98901 14 8.11301 14 6.48901C14 4.86501 14.7095 3.98901 15 3.98901ZM9 3.98901C9.2905 3.98901 10 4.86501 10 6.48901C10 8.11301 9.2905 8.98901 9 8.98901C8.7095 8.98901 8 8.11301 8 6.48901C8 4.86501 8.7095 3.98901 9 3.98901ZM13 19.95V17.989H14V15.989H10V17.989H11V19.95C8.43 19.7545 6 18.7735 6 16.489C6 13.998 8.6765 10.989 12 10.989C15.3235 10.989 18 13.998 18 16.489C18 18.7735 15.57 19.7545 13 19.95Z" fill="#FA993A"/>
</g>
<defs>
<clipPath id="clip0_200_5622">
<rect width="24" height="24" fill="white"/>
</clipPath>
</defs>
</svg>
